<?xml version="1.0" standalone="no"?>
<!DOCTYPE svg PUBLIC "-//W3C//DTD SVG 20010904//EN"
 "http://www.w3.org/TR/2001/REC-SVG-20010904/DTD/svg10.dtd">
<svg version="1.0" xmlns="http://www.w3.org/2000/svg"
 width="176.000000pt" height="176.000000pt" viewBox="0 0 176.000000 176.000000"
 preserveAspectRatio="xMidYMid meet">
<metadata>
Created by potrace 1.11, written by Peter Selinger 2001-2013
</metadata>
<g transform="translate(0.000000,176.000000) scale(0.100000,-0.100000)"
fill="#000000" stroke="none">
<path d="M743 1395 c-170 -46 -311 -179 -367 -347 -14 -42 -26 -81 -26 -87 0
-6 13 -11 29 -11 25 0 30 4 36 38 28 148 167 298 321 345 68 20 74 24 74 50 0
31 2 30 -67 12z"/>
<path d="M930 1382 c0 -27 3 -30 46 -36 63 -8 159 -57 222 -112 62 -54 127
-159 143 -231 11 -49 15 -53 41 -53 33 0 33 0 8 81 -22 73 -71 158 -120 213
-69 75 -196 144 -297 161 -42 7 -43 6 -43 -23z"/>
<path d="M858 1109 c-80 -42 -109 -139 -59 -193 l22 -24 -36 -22 c-47 -29 -69
-72 -62 -126 12 -113 152 -129 222 -27 26 39 33 73 15 73 -5 0 -10 -6 -10 -14
0 -8 -16 -30 -35 -50 -59 -62 -132 -43 -139 36 -6 61 39 110 96 104 26 -2 39
1 42 11 9 23 -3 34 -30 29 -20 -4 -28 1 -41 28 -30 64 5 144 74 167 31 10 38
9 48 -5 17 -22 7 -61 -21 -90 l-24 -24 27 -7 c21 -5 31 -2 44 16 33 45 31 107
-5 131 -21 14 -91 7 -128 -13z"/>
<path d="M350 806 c0 -38 37 -147 69 -201 77 -132 214 -231 359 -258 30 -6 32
-5 32 22 0 25 -5 30 -37 36 -158 29 -330 202 -358 360 -9 48 -21 65 -46 65
-13 0 -19 -7 -19 -24z"/>
<path d="M1354 800 c-13 -58 -37 -128 -59 -166 -67 -116 -194 -208 -315 -230
-44 -8 -50 -13 -50 -39 0 -29 3 -30 84 -9 180 46 326 190 380 373 24 81 22
101 -9 99 -19 -2 -27 -10 -31 -28z"/>
</g>
</svg>
